<svg width="12" height="12" viewBox="0 0 12 12" fill="none" xmlns="http://www.w3.org/2000/svg">
<path d="M4.80323 2.25999C5.238 1.08087 6.57193 0.0982606 7.25975 0C7.45634 0.0327535 7.77092 0.176869 7.45649 0.491303C7.14205 0.805737 6.82367 1.37565 7.06268 2.25999C8.04528 5.89564 9.99021 4.71651 10.306 7.36955C10.6991 10.6711 7.91504 11.824 6.47388 11.9878C5.36011 12.0861 2.93604 11.6341 2.14996 9.03998C1.16735 5.79738 4.21367 2.84956 3.62411 4.02869C3.03454 5.20781 4.40997 5.50276 4.70442 4.91303C5.09692 4.12695 4.11486 4.12695 4.80323 2.25999Z" fill="#ED3B49"/>
<path d="M5.82885 6.33745C6.01308 5.81339 6.57835 5.37668 6.86982 5.33301C6.95313 5.34756 7.08643 5.41162 6.95319 5.55136C6.81994 5.69111 6.68502 5.94441 6.78631 6.33745C7.20269 7.95329 8.02687 7.42923 8.16071 8.60836C8.32726 10.0757 7.1475 10.5881 6.5368 10.6609C6.06483 10.7046 5.03761 10.5037 4.7045 9.35078C4.28812 7.90962 5.57902 6.59948 5.32919 7.12353C5.07935 7.64759 5.6622 7.77868 5.78698 7.51658C5.9533 7.16721 5.53715 7.16721 5.82885 6.33745Z" fill="#FBC500"/>
</svg>
