<svg width="24" height="24" viewBox="0 0 24 24" fill="none" xmlns="http://www.w3.org/2000/svg">
<g clip-path="url(#clip0_7335_14718)">
<path d="M9.02969 15.6313V7.08301L17.6736 4.36178C18.5296 4.09227 19.4011 4.73155 19.4011 5.62903V17.0853C19.4011 17.9828 18.5297 18.6221 17.6736 18.3526L9.02969 15.6313Z" stroke="#98A2B3" stroke-width="1.2"/>
<path d="M2.6 9.55706C2.6 8.11323 3.77046 6.94277 5.21429 6.94277H9.11429V15.5142H5.2143C3.77046 15.5142 2.6 14.3438 2.6 12.9V9.55706Z" stroke="#98A2B3" stroke-width="1.2"/>
<path d="M6.13431 19.7606L5.30219 15.6H9.22129L9.94918 19.2395C10.1136 20.0616 9.48479 20.8286 8.6464 20.8286H7.43708C6.80378 20.8286 6.25851 20.3816 6.13431 19.7606Z" stroke="#98A2B3" stroke-width="1.2"/>
<path d="M19.3605 13.2859C19.6138 13.2859 19.8645 13.236 20.0985 13.1391C20.3325 13.0421 20.5451 12.9001 20.7242 12.721C20.9033 12.5419 21.0453 12.3293 21.1423 12.0953C21.2392 11.8613 21.2891 11.6106 21.2891 11.3573C21.2891 11.104 21.2392 10.8532 21.1423 10.6193C21.0453 10.3853 20.9033 10.1727 20.7242 9.99358C20.5451 9.81449 20.3325 9.67244 20.0985 9.57552C19.8645 9.4786 19.6138 9.42871 19.3605 9.42871L19.3605 11.3573L19.3605 13.2859Z" fill="#98A2B3"/>
</g>
<defs>
<clipPath id="clip0_7335_14718">
<rect width="24" height="24" fill="white"/>
</clipPath>
</defs>
</svg>
