<svg width="24" height="24" viewBox="0 0 24 24" fill="none" xmlns="http://www.w3.org/2000/svg">
<g clip-path="url(#clip0_6299_13470)">
<rect x="4.6" y="4.82217" width="14.8" height="16.5778" rx="1.9" stroke="#98A2B3" stroke-width="1.2"/>
<path d="M11.543 12L15.543 12" stroke="#98A2B3" stroke-width="1.3" stroke-linecap="round"/>
<path d="M11.543 15.8887L15.543 15.8887" stroke="#98A2B3" stroke-width="1.3" stroke-linecap="round"/>
<path d="M8.11719 12H9.26004" stroke="#98A2B3" stroke-width="1.3" stroke-linecap="round"/>
<path d="M8.11719 15.8887H9.26004" stroke="#98A2B3" stroke-width="1.3" stroke-linecap="round"/>
<mask id="path-6-inside-1_6299_13470" fill="white">
<path fill-rule="evenodd" clip-rule="evenodd" d="M14.2393 3.11131H15.0765C15.9049 3.11131 16.5765 3.78289 16.5765 4.61131V6.05576C16.5765 6.88419 15.9049 7.55576 15.0765 7.55576H8.93359C8.10517 7.55576 7.43359 6.88419 7.43359 6.05576V4.61132C7.43359 3.78289 8.10517 3.11131 8.93359 3.11131H9.7696C9.94083 2.47131 10.5247 2 11.2188 2H12.7902C13.4842 2 14.0681 2.47131 14.2393 3.11131Z"/>
</mask>
<path fill-rule="evenodd" clip-rule="evenodd" d="M14.2393 3.11131H15.0765C15.9049 3.11131 16.5765 3.78289 16.5765 4.61131V6.05576C16.5765 6.88419 15.9049 7.55576 15.0765 7.55576H8.93359C8.10517 7.55576 7.43359 6.88419 7.43359 6.05576V4.61132C7.43359 3.78289 8.10517 3.11131 8.93359 3.11131H9.7696C9.94083 2.47131 10.5247 2 11.2188 2H12.7902C13.4842 2 14.0681 2.47131 14.2393 3.11131Z" fill="#F7F8FA"/>
<path d="M14.2393 3.11131L13.0801 3.42146L13.3182 4.31131H14.2393V3.11131ZM9.7696 3.11131V4.31131H10.6908L10.9288 3.42146L9.7696 3.11131ZM14.2393 4.31131H15.0765V1.91131H14.2393V4.31131ZM15.0765 4.31131C15.2421 4.31131 15.3765 4.44563 15.3765 4.61131H17.7765C17.7765 3.12015 16.5676 1.91131 15.0765 1.91131V4.31131ZM15.3765 4.61131V6.05576H17.7765V4.61131H15.3765ZM15.3765 6.05576C15.3765 6.22144 15.2421 6.35576 15.0765 6.35576V8.75576C16.5676 8.75576 17.7765 7.54693 17.7765 6.05576H15.3765ZM15.0765 6.35576H8.93359V8.75576H15.0765V6.35576ZM8.93359 6.35576C8.76791 6.35576 8.63359 6.22144 8.63359 6.05576H6.23359C6.23359 7.54693 7.44242 8.75576 8.93359 8.75576V6.35576ZM8.63359 6.05576V4.61132H6.23359V6.05576H8.63359ZM8.63359 4.61132C8.63359 4.44563 8.76791 4.31131 8.93359 4.31131V1.91131C7.44242 1.91131 6.23359 3.12015 6.23359 4.61132H8.63359ZM8.93359 4.31131H9.7696V1.91131H8.93359V4.31131ZM10.9288 3.42146C10.9632 3.29305 11.0816 3.2 11.2188 3.2V0.8C9.96786 0.8 8.91847 1.64957 8.61037 2.80117L10.9288 3.42146ZM11.2188 3.2H12.7902V0.8H11.2188V3.2ZM12.7902 3.2C12.9273 3.2 13.0457 3.29305 13.0801 3.42146L15.3986 2.80117C15.0905 1.64957 14.0411 0.8 12.7902 0.8V3.2Z" fill="#98A2B3" mask="url(#path-6-inside-1_6299_13470)"/>
</g>
<defs>
<clipPath id="clip0_6299_13470">
<rect width="24" height="24" fill="white"/>
</clipPath>
</defs>
</svg>
