<svg width="24" height="24" viewBox="0 0 24 24" fill="none" xmlns="http://www.w3.org/2000/svg">
<mask id="path-1-inside-1_6237_13653" fill="white">
<path fill-rule="evenodd" clip-rule="evenodd" d="M12.1124 21.75C6.72765 21.75 2.36243 17.3848 2.36243 12C2.36243 6.61522 6.72765 2.25 12.1124 2.25C17.4972 2.25 21.8624 6.61522 21.8624 12C21.8624 12.8566 21.752 13.6874 21.5445 14.4789L23.2058 19.1356C23.3787 19.6203 23.0233 20.1311 22.5087 20.1375L17.3879 20.2009C15.8672 21.1812 14.0562 21.75 12.1124 21.75Z"/>
</mask>
<path d="M21.5445 14.4789L20.4849 14.8569L20.3682 14.5297L20.4563 14.1937L21.5445 14.4789ZM23.2058 19.1356L22.1462 19.5136L22.1462 19.5136L23.2058 19.1356ZM22.5087 20.1375L22.4947 19.0126H22.4947L22.5087 20.1375ZM17.3879 20.2009L16.7784 19.2553L17.0504 19.08L17.374 19.076L17.3879 20.2009ZM3.48743 12C3.48743 16.7635 7.34897 20.625 12.1124 20.625V22.875C6.10633 22.875 1.23743 18.0061 1.23743 12H3.48743ZM12.1124 3.375C7.34897 3.375 3.48743 7.23654 3.48743 12H1.23743C1.23743 5.9939 6.10633 1.125 12.1124 1.125V3.375ZM20.7374 12C20.7374 7.23654 16.8759 3.375 12.1124 3.375V1.125C18.1185 1.125 22.9874 5.9939 22.9874 12H20.7374ZM20.4563 14.1937C20.6395 13.4945 20.7374 12.7595 20.7374 12H22.9874C22.9874 12.9537 22.8644 13.8803 22.6327 14.7641L20.4563 14.1937ZM22.6041 14.1009L24.2654 18.7576L22.1462 19.5136L20.4849 14.8569L22.6041 14.1009ZM24.2654 18.7576C24.6977 19.9693 23.809 21.2465 22.5226 21.2624L22.4947 19.0126C22.2375 19.0158 22.0597 19.2712 22.1462 19.5136L24.2654 18.7576ZM22.5226 21.2624L17.4018 21.3258L17.374 19.076L22.4947 19.0126L22.5226 21.2624ZM12.1124 20.625C13.8336 20.625 15.4339 20.122 16.7784 19.2553L17.9974 21.1465C16.3004 22.2404 14.2788 22.875 12.1124 22.875V20.625Z" fill="#98A2B3" mask="url(#path-1-inside-1_6237_13653)"/>
<path d="M9.75 10.05C9.75 9.57261 9.98673 9.11477 10.4081 8.77721C10.8295 8.43964 11.401 8.25 11.9969 8.25C12.5928 8.25 13.165 8.43964 13.5863 8.77721C14.0077 9.11477 14.2444 9.57261 14.2444 10.05C14.2681 10.4396 14.2438 10.95 13.6019 11.55C12.9599 12.15 11.9969 12.15 11.9969 13.05C11.9969 13.6172 11.9731 13.7306 11.9968 14.25" stroke="#98A2B3" stroke-width="1.5" stroke-linecap="round" stroke-linejoin="round"/>
<circle cx="12.1016" cy="16.7998" r="1" fill="#98A2B3"/>
</svg>
