<svg width="32" height="32" viewBox="0 0 32 32" fill="none" xmlns="http://www.w3.org/2000/svg">
    <circle cx="16" cy="16" r="16" fill="#F2F4F7"/>
    <mask id="path-2-inside-1_8605_15433" fill="white">
        <path d="M16.0054 6C11.5013 6 8.11861 9.84648 8.11861 14.5569L8.10935 14.3203V18.4395L7.20111 20.5684C6.70992 21.2986 7.17331 22.3374 7.99813 22.3374L24.0034 22.3477C24.819 22.3477 25.2917 21.3089 24.8005 20.5787L23.9108 18.4395V14.3203L23.9015 14.5569C23.8922 9.84648 20.5095 6 16.0054 6Z"/>
    </mask>
    <path d="M8.11861 14.5569L7.11938 14.596L9.11861 14.5569H8.11861ZM8.10935 14.3203L9.10858 14.2812L7.10935 14.3203H8.10935ZM8.10935 18.4395L9.02914 18.8319L9.10935 18.6439V18.4395H8.10935ZM7.20111 20.5684L8.03086 21.1266L8.08373 21.048L8.12091 20.9608L7.20111 20.5684ZM7.99813 22.3374L7.99878 21.3374H7.99813V22.3374ZM24.0034 22.3477L24.0028 23.3477H24.0034V22.3477ZM24.8005 20.5787L23.8771 20.9627L23.9153 21.0544L23.9707 21.1369L24.8005 20.5787ZM23.9108 18.4395H22.9108V18.6392L22.9874 18.8235L23.9108 18.4395ZM23.9108 14.3203H24.9108L22.9115 14.2812L23.9108 14.3203ZM23.9015 14.5569L22.9015 14.5588L24.9007 14.596L23.9015 14.5569ZM16.0054 5C10.861 5 7.11861 9.38656 7.11861 14.5569H9.11861C9.11861 10.3064 12.1417 7 16.0054 7V5ZM9.11785 14.5177L9.10858 14.2812L7.11011 14.3595L7.11938 14.596L9.11785 14.5177ZM7.10935 14.3203V18.4395H9.10935V14.3203H7.10935ZM7.18955 18.0471L6.28132 20.176L8.12091 20.9608L9.02914 18.8319L7.18955 18.0471ZM6.37137 20.0103C5.91501 20.6887 5.90848 21.5006 6.19382 22.1363C6.48062 22.7752 7.11918 23.3374 7.99813 23.3374V21.3374C8.01053 21.3374 8.02904 21.3437 8.03919 21.351C8.04421 21.3546 8.0318 21.347 8.01841 21.3172C7.98866 21.2509 7.99602 21.1784 8.03086 21.1266L6.37137 20.0103ZM7.99749 23.3374L24.0028 23.3477L24.0041 21.3477L7.99878 21.3374L7.99749 23.3374ZM24.0034 23.3477C24.8807 23.3477 25.5167 22.7825 25.8032 22.1491C26.0894 21.5161 26.0889 20.7025 25.6302 20.0206L23.9707 21.1369C24.0032 21.1851 24.012 21.256 23.9808 21.325C23.9667 21.3562 23.9533 21.365 23.9574 21.362C23.9665 21.3554 23.9863 21.3477 24.0034 21.3477V23.3477ZM25.7238 20.1947L24.8341 18.0555L22.9874 18.8235L23.8771 20.9627L25.7238 20.1947ZM24.9108 18.4395V14.3203H22.9108V18.4395H24.9108ZM22.9115 14.2812L22.9023 14.5177L24.9007 14.596L24.91 14.3595L22.9115 14.2812ZM24.9015 14.5549C24.8913 9.38641 21.15 5 16.0054 5V7C19.869 7 22.8931 10.3065 22.9015 14.5588L24.9015 14.5549Z" fill="#475467" mask="url(#path-2-inside-1_8605_15433)"/>
    <path d="M12.8438 21.8115C12.8438 23.745 14.2524 25.3083 15.9948 25.3083C17.7371 25.3083 19.1458 23.745 19.1458 21.8115" stroke="#475467" stroke-miterlimit="10" stroke-linejoin="bevel"/>
</svg>
