<svg width="32" height="32" viewBox="0 0 32 32" fill="none" xmlns="http://www.w3.org/2000/svg">
<g clip-path="url(#clip0_6148_23091)">
<path d="M18.6951 3.75141H18.6948L13.371 3.75C13.3709 3.75 13.3709 3.75 13.3708 3.75C13.3707 3.75 13.3707 3.75 13.3706 3.75C12.9611 3.75018 12.5582 3.85571 12.2005 4.05673C11.8427 4.25783 11.5418 4.54787 11.3269 4.89943L11.3267 4.89975L10.1017 6.90137L9.88231 7.25987H9.462H6.55C5.54315 7.25987 4.57693 7.66142 3.86406 8.37716C3.15108 9.093 2.75 10.0645 2.75 11.0782V24.4317C2.75 25.4453 3.15108 26.4169 3.86406 27.1327C4.57693 27.8484 5.54315 28.25 6.55 28.25H25.45C25.9486 28.25 26.4424 28.1514 26.9032 27.9598C27.364 27.7681 27.7829 27.4871 28.1359 27.1327C28.4889 26.7783 28.7691 26.3574 28.9603 25.8939C29.1515 25.4304 29.25 24.9335 29.25 24.4317V11.0784C29.25 11.0783 29.25 11.0783 29.25 11.0782C29.2496 10.0648 28.8484 9.09368 28.1355 8.37815C27.4227 7.66266 26.4566 7.26127 25.45 7.26127H22.5506H22.1203L21.9031 6.88975L20.7637 4.94053L18.6951 3.75141ZM18.6951 3.75141C19.1127 3.75137 19.5232 3.86088 19.886 4.06931M18.6951 3.75141L19.886 4.06931M19.886 4.06931C20.2487 4.27767 20.5513 4.57776 20.7635 4.94014L19.886 4.06931Z" stroke="#00A3FF" stroke-width="1.5"/>
<circle cx="16" cy="17" r="5.25" stroke="#00A3FF" stroke-width="1.5"/>
</g>
<defs>
<clipPath id="clip0_6148_23091">
<rect width="32" height="32" fill="white"/>
</clipPath>
</defs>
</svg>
