<svg width="32" height="32" viewBox="0 0 32 32" fill="none" xmlns="http://www.w3.org/2000/svg">
<rect x="5" y="6" width="22" height="22" rx="4" fill="#E4E7EC"/>
<rect x="5.25" y="6.25" width="21.5" height="21.5" rx="3.75" stroke="url(#paint0_linear_1627_2029)" stroke-opacity="0.2" stroke-width="0.5"/>
<path fill-rule="evenodd" clip-rule="evenodd" d="M17.0238 10.7833C17.1436 10.2442 17.6778 9.90422 18.2169 10.024C19.1188 10.2244 20.4129 10.7748 21.4983 11.7974C22.6081 12.8431 23.5 14.3882 23.5 16.5002C23.5 17.0525 23.0523 17.5002 22.5 17.5002C21.9477 17.5002 21.5 17.0525 21.5 16.5002C21.5 15.0122 20.8919 13.974 20.1267 13.253C19.769 12.916 19.3772 12.6496 19 12.4467V20.5002C19 20.5638 18.9941 20.626 18.9827 20.6863C18.9941 20.789 19 20.8937 19 21.0002C19 22.0973 18.3757 22.9963 17.5561 23.5817C16.7346 24.1685 15.6509 24.5002 14.5 24.5002C13.3491 24.5002 12.2654 24.1685 11.4439 23.5817C10.6243 22.9963 10 22.0973 10 21.0002C10 19.9031 10.6243 19.0042 11.4439 18.4187C12.2654 17.8319 13.3491 17.5002 14.5 17.5002C15.4068 17.5002 16.272 17.7062 17 18.0806L17 11.5002C17 11.4139 17.0109 11.3301 17.0315 11.2502C16.9932 11.102 16.9883 10.9429 17.0238 10.7833ZM12 21.0002C12 20.7166 12.1592 20.3656 12.6064 20.0462C13.0516 19.7282 13.7179 19.5002 14.5 19.5002C15.2821 19.5002 15.9484 19.7282 16.3936 20.0462C16.8408 20.3656 17 20.7166 17 21.0002C17 21.2838 16.8408 21.6349 16.3936 21.9542C15.9484 22.2723 15.2821 22.5002 14.5 22.5002C13.7179 22.5002 13.0516 22.2723 12.6064 21.9542C12.1592 21.6349 12 21.2838 12 21.0002Z" fill="url(#paint1_linear_1627_2029)"/>
<defs>
<linearGradient id="paint0_linear_1627_2029" x1="16" y1="6" x2="16" y2="28" gradientUnits="userSpaceOnUse">
<stop stop-color="white"/>
<stop offset="1" stop-color="white" stop-opacity="0"/>
</linearGradient>
<linearGradient id="paint1_linear_1627_2029" x1="25.1875" y1="9.99999" x2="8.3125" y2="9.99999" gradientUnits="userSpaceOnUse">
<stop stop-color="#98A2B3"/>
<stop offset="1" stop-color="#98A2B3" stop-opacity="0.2"/>
</linearGradient>
</defs>
</svg>
