<svg width="32" height="32" viewBox="0 0 32 32" fill="none" xmlns="http://www.w3.org/2000/svg">
    <circle cx="16" cy="16" r="16" fill="#F2F4F7"/>
    <g clip-path="url(#clip0_7335_14136)">
        <path d="M17.925 6.00393H17.9249L14.1221 6.00293C14.1221 6.00293 14.1221 6.00293 14.122 6.00293C14.122 6.00293 14.1219 6.00293 14.1219 6.00293C13.8228 6.00305 13.5288 6.07981 13.2679 6.22587C13.0068 6.37197 12.7876 6.58255 12.6311 6.83749L12.631 6.83769L11.756 8.26169L11.6096 8.49993H11.33H9.25C8.52065 8.49993 7.82118 8.78966 7.30546 9.30539C6.78973 9.82111 6.5 10.5206 6.5 11.2499V20.7499C6.5 21.4793 6.78973 22.1787 7.30546 22.6945C7.82118 23.2102 8.52065 23.4999 9.25 23.4999H22.75C23.1111 23.4999 23.4687 23.4288 23.8024 23.2906C24.136 23.1524 24.4392 22.9498 24.6945 22.6945C24.9499 22.4391 25.1525 22.136 25.2907 21.8023C25.4289 21.4687 25.5 21.1111 25.5 20.7499V11.2501C25.5 11.25 25.5 11.25 25.5 11.2499C25.4997 10.5208 25.2099 9.82159 24.6942 9.30609C24.1785 8.79054 23.4792 8.50093 22.75 8.50093H20.679H20.3927L20.2478 8.254L19.4339 6.86726L17.925 6.00393ZM17.925 6.00393C18.23 6.00391 18.5296 6.08355 18.7943 6.23499M17.925 6.00393L18.7943 6.23499M18.7943 6.23499C19.0588 6.38637 19.2793 6.60423 19.4338 6.86701L18.7943 6.23499Z" stroke="#475467"/>
        <circle cx="16" cy="16" r="3.5" stroke="#475467"/>
    </g>
    <defs>
        <clipPath id="clip0_7335_14136">
            <rect width="24" height="24" fill="white" transform="translate(4 3)"/>
        </clipPath>
    </defs>
</svg>
