<svg width="32" height="32" viewBox="0 0 32 32" fill="none" xmlns="http://www.w3.org/2000/svg">
<path d="M19 11.5V9.25C19 8.65326 18.7701 8.08097 18.361 7.65901C17.9518 7.23705 17.3968 7 16.8182 7H9.18182C8.60316 7 8.04821 7.23705 7.63904 7.65901C7.22987 8.08097 7 8.65326 7 9.25V22.75C7 23.3467 7.22987 23.919 7.63904 24.341C8.04821 24.7629 8.60316 25 9.18182 25H16.8182C17.3968 25 17.9518 24.7629 18.361 24.341C18.7701 23.919 19 23.3467 19 22.75V20.5" stroke="#98A2B3" stroke-width="1.5" stroke-linecap="round" stroke-linejoin="round"/>
<path d="M13 16.0005H26M26 16.0005L22.8033 20.0005M26 16.0005L24.4016 14.0005L22.8033 12.0005" stroke="#98A2B3" stroke-width="1.5" stroke-linecap="round" stroke-linejoin="round"/>
</svg>
