<svg width="32" height="32" viewBox="0 0 32 32" fill="none" xmlns="http://www.w3.org/2000/svg">
    <circle cx="16" cy="16" r="16" fill="#F2F4F7"/>
    <path d="M13.875 9H10.125C9.50368 9 9 9.50368 9 10.125V13.875C9 14.4963 9.50368 15 10.125 15H13.875C14.4963 15 15 14.4963 15 13.875V10.125C15 9.50368 14.4963 9 13.875 9Z" stroke="#475467" stroke-linecap="round" stroke-linejoin="round"/>
    <path d="M13.875 17H10.125C9.50368 17 9 17.5037 9 18.125V21.875C9 22.4963 9.50368 23 10.125 23H13.875C14.4963 23 15 22.4963 15 21.875V18.125C15 17.5037 14.4963 17 13.875 17Z" stroke="#475467" stroke-linecap="round" stroke-linejoin="round"/>
    <path d="M21.875 17H18.125C17.5037 17 17 17.5037 17 18.125V21.875C17 22.4963 17.5037 23 18.125 23H21.875C22.4963 23 23 22.4963 23 21.875V18.125C23 17.5037 22.4963 17 21.875 17Z" stroke="#475467" stroke-linecap="round" stroke-linejoin="round"/>
    <path d="M21.875 9H18.125C17.5037 9 17 9.50368 17 10.125V13.875C17 14.4963 17.5037 15 18.125 15H21.875C22.4963 15 23 14.4963 23 13.875V10.125C23 9.50368 22.4963 9 21.875 9Z" stroke="#475467" stroke-linecap="round" stroke-linejoin="round"/>
</svg>
