<svg width="24" height="24" viewBox="0 0 24 24" fill="none" xmlns="http://www.w3.org/2000/svg">
<path d="M16.6731 12.1441C16.6598 9.96757 18.4515 8.91912 18.5311 8.86603C17.5225 7.37962 15.9432 7.18055 15.3857 7.16727C14.0586 7.03456 12.7713 7.96357 12.0944 7.96357C11.4043 7.96357 10.3691 7.18054 9.24102 7.20709C7.8077 7.22036 6.454 8.05647 5.72407 9.35708C4.19784 11.9981 5.33919 15.8867 6.79906 18.0234C7.529 19.0718 8.39165 20.2397 9.50646 20.1999C10.608 20.1601 11.0061 19.4965 12.3333 19.4965C13.6472 19.4965 14.0321 20.1999 15.1734 20.1734C16.3546 20.1601 17.0845 19.1249 17.8012 18.0632C18.6505 16.8688 18.9823 15.6876 18.9956 15.6212C18.9558 15.608 16.6996 14.7453 16.6731 12.1441Z" fill="black"/>
<path d="M14.5247 5.76048C15.1087 5.01727 15.5201 4.02191 15.4007 3C14.5513 3.03981 13.4896 3.58395 12.8658 4.31388C12.3217 4.95092 11.8306 5.9861 11.9633 6.96819C12.9189 7.03455 13.9142 6.47714 14.5247 5.76048Z" fill="black"/>
</svg>
