<svg width="32" height="32" viewBox="0 0 32 32" fill="none" xmlns="http://www.w3.org/2000/svg">
<mask id="mask0_1627_2035" style="mask-type:alpha" maskUnits="userSpaceOnUse" x="0" y="0" width="32" height="32">
<rect width="32" height="32" fill="black"/>
</mask>
<g mask="url(#mask0_1627_2035)">
<rect x="16" y="0.339844" width="20" height="20" rx="4" transform="rotate(30 16 0.339844)" fill="#FF8F0C"/>
<g filter="url(#filter0_b_1627_2035)">
<rect x="5" y="6" width="22" height="22" rx="4" fill="#E4E7EC" fill-opacity="0.4"/>
<rect x="5.25" y="6.25" width="21.5" height="21.5" rx="3.75" stroke="url(#paint0_linear_1627_2035)" stroke-opacity="0.2" stroke-width="0.5"/>
</g>
<path fill-rule="evenodd" clip-rule="evenodd" d="M14 14C14 12.8954 14.8954 12 16 12C17.1046 12 18 12.8954 18 14C18 15.1046 17.1046 16 16 16C14.8954 16 14 15.1046 14 14ZM16 10C13.7909 10 12 11.7909 12 14C12 15.3805 12.6994 16.5977 13.7631 17.3166C11.0721 18.0968 9 20.2502 9 23C9 23.5523 9.44772 24 10 24C10.5523 24 11 23.5523 11 23C11 20.9538 13.0601 19 16 19C18.9399 19 21 20.9538 21 23C21 23.5523 21.4477 24 22 24C22.5523 24 23 23.5523 23 23C23 20.2502 20.9279 18.0968 18.2369 17.3166C19.3006 16.5977 20 15.3805 20 14C20 11.7909 18.2091 10 16 10Z" fill="url(#paint1_linear_1627_2035)"/>
</g>
<defs>
<filter id="filter0_b_1627_2035" x="-3" y="-2" width="38" height="38" filterUnits="userSpaceOnUse" color-interpolation-filters="sRGB">
<feFlood flood-opacity="0" result="BackgroundImageFix"/>
<feGaussianBlur in="BackgroundImageFix" stdDeviation="4"/>
<feComposite in2="SourceAlpha" operator="in" result="effect1_backgroundBlur_1627_2035"/>
<feBlend mode="normal" in="SourceGraphic" in2="effect1_backgroundBlur_1627_2035" result="shape"/>
</filter>
<linearGradient id="paint0_linear_1627_2035" x1="16" y1="6" x2="16" y2="28" gradientUnits="userSpaceOnUse">
<stop stop-color="white"/>
<stop offset="1" stop-color="#F0D0AA"/>
</linearGradient>
<linearGradient id="paint1_linear_1627_2035" x1="24.75" y1="9.99999" x2="7.25" y2="9.99999" gradientUnits="userSpaceOnUse">
<stop stop-color="white"/>
<stop offset="1" stop-color="white" stop-opacity="0.2"/>
</linearGradient>
</defs>
</svg>
