<svg width="32" height="32" viewBox="0 0 32 32" fill="none" xmlns="http://www.w3.org/2000/svg">
<mask id="mask0_1627_2031" style="mask-type:alpha" maskUnits="userSpaceOnUse" x="0" y="0" width="32" height="32">
<rect width="32" height="32" fill="black"/>
</mask>
<g mask="url(#mask0_1627_2031)">
<path d="M11.9816 3.69221C12.6214 2.58392 13.753 1.8487 15.0256 1.71432L23.6333 0.805465C25.358 0.623356 27.0036 1.57344 27.7082 3.15815L31.225 11.067C31.7449 12.2364 31.674 13.5839 31.0341 14.6922L26.0526 23.3205C24.948 25.2337 22.5016 25.8892 20.5885 24.7846L8.4641 17.7846C6.55093 16.68 5.89543 14.2337 7 12.3205L11.9816 3.69221Z" fill="white"/>
<path d="M11.9816 3.69221C12.6214 2.58392 13.753 1.8487 15.0256 1.71432L23.6333 0.805465C25.358 0.623356 27.0036 1.57344 27.7082 3.15815L31.225 11.067C31.7449 12.2364 31.674 13.5839 31.0341 14.6922L26.0526 23.3205C24.948 25.2337 22.5016 25.8892 20.5885 24.7846L8.4641 17.7846C6.55093 16.68 5.89543 14.2337 7 12.3205L11.9816 3.69221Z" fill="url(#paint0_linear_1627_2031)"/>
<g filter="url(#filter0_b_1627_2031)">
<path d="M5 14.0369C5 12.7572 5.61234 11.5547 6.64731 10.802L13.6473 5.71104C15.0499 4.69097 16.9501 4.69097 18.3527 5.71104L25.3527 10.802C26.3877 11.5547 27 12.7572 27 14.0369V24C27 26.2091 25.2091 28 23 28H9C6.79086 28 5 26.2091 5 24V14.0369Z" fill="#E4E7EC" fill-opacity="0.4"/>
<path d="M5.25 14.0369C5.25 12.8371 5.82407 11.7098 6.79436 11.0041L13.7944 5.91323C15.1093 4.95691 16.8907 4.95691 18.2056 5.91323L25.2056 11.0041C26.1759 11.7098 26.75 12.8371 26.75 14.0369V24C26.75 26.0711 25.0711 27.75 23 27.75H9C6.92893 27.75 5.25 26.0711 5.25 24V14.0369Z" stroke="url(#paint1_linear_1627_2031)" stroke-opacity="0.2" stroke-width="0.5"/>
</g>
<path d="M12 23H20" stroke="url(#paint2_linear_1627_2031)" stroke-width="2" stroke-linecap="round"/>
</g>
<defs>
<filter id="filter0_b_1627_2031" x="-3" y="-3.0542" width="38" height="39.0542" filterUnits="userSpaceOnUse" color-interpolation-filters="sRGB">
<feFlood flood-opacity="0" result="BackgroundImageFix"/>
<feGaussianBlur in="BackgroundImageFix" stdDeviation="4"/>
<feComposite in2="SourceAlpha" operator="in" result="effect1_backgroundBlur_1627_2031"/>
<feBlend mode="normal" in="SourceGraphic" in2="effect1_backgroundBlur_1627_2031" result="shape"/>
</filter>
<linearGradient id="paint0_linear_1627_2031" x1="16.784" y1="-0.125878" x2="24.5577" y2="7.87623" gradientUnits="userSpaceOnUse">
<stop stop-color="#F4FF81"/>
<stop offset="1" stop-color="#00F3F3"/>
</linearGradient>
<linearGradient id="paint1_linear_1627_2031" x1="16" y1="4" x2="16" y2="28" gradientUnits="userSpaceOnUse">
<stop stop-color="white"/>
<stop offset="1" stop-color="#A6D6F3"/>
</linearGradient>
<linearGradient id="paint2_linear_1627_2031" x1="21" y1="23" x2="11" y2="23" gradientUnits="userSpaceOnUse">
<stop stop-color="white"/>
<stop offset="1" stop-color="white" stop-opacity="0.2"/>
</linearGradient>
</defs>
</svg>
