<svg width="24" height="24" viewBox="0 0 24 24" fill="none" xmlns="http://www.w3.org/2000/svg">
<path fill-rule="evenodd" clip-rule="evenodd" d="M20.2494 12.1873C20.2494 11.6021 20.1955 11.0402 20.0964 10.5H12.168V13.6912H16.6988C16.5037 14.7225 15.9105 15.5961 15.0191 16.1813V18.251H17.7401C19.3311 16.8148 20.2494 14.7 20.2494 12.1873Z" fill="#3E82F1"/>
<path fill-rule="evenodd" clip-rule="evenodd" d="M12.1677 20.2499C14.4406 20.2499 16.3464 19.5108 17.7391 18.251L15.018 16.1813C14.2638 16.6764 13.3002 16.9686 12.1669 16.9686C9.97402 16.9686 8.11822 15.5176 7.45599 13.5676H4.64453V15.7049C6.03004 18.401 8.8764 20.2499 12.1677 20.2499Z" fill="#32A753"/>
<path fill-rule="evenodd" clip-rule="evenodd" d="M7.45764 13.5676C7.28951 13.0726 7.19355 12.5441 7.19355 12C7.19355 11.456 7.28951 10.9275 7.45764 10.4324V8.2951H4.64539C4.07516 9.40884 3.75 10.6687 3.75 12C3.75 13.3314 4.07516 14.5912 4.64539 15.705L7.45764 13.5676Z" fill="#F9BB00"/>
<path fill-rule="evenodd" clip-rule="evenodd" d="M12.1677 7.03135C13.4033 7.03135 14.5136 7.44793 15.386 8.26477L17.8009 5.89819C16.3424 4.56762 14.4367 3.75 12.1677 3.75C8.8764 3.75 6.03004 5.59896 4.64453 8.29508L7.45679 10.4324C8.11901 8.48238 9.97481 7.03135 12.1677 7.03135Z" fill="#E74133"/>
</svg>
