<svg width="32" height="32" viewBox="0 0 32 32" fill="none" xmlns="http://www.w3.org/2000/svg">
<mask id="path-1-inside-1_1842_2757" fill="white">
<path d="M7.44531 9.1665C7.44531 8.89036 7.66917 8.6665 7.94531 8.6665H24.0564C24.3326 8.6665 24.5564 8.89036 24.5564 9.1665V24.9998C24.5564 26.1044 23.661 26.9998 22.5564 26.9998H9.44532C8.34075 26.9998 7.44531 26.1044 7.44531 24.9998V9.1665Z"/>
</mask>
<path d="M7.44531 9.1665C7.44531 8.89036 7.66917 8.6665 7.94531 8.6665H24.0564C24.3326 8.6665 24.5564 8.89036 24.5564 9.1665V24.9998C24.5564 26.1044 23.661 26.9998 22.5564 26.9998H9.44532C8.34075 26.9998 7.44531 26.1044 7.44531 24.9998V9.1665Z" stroke="#FCFCFD" stroke-width="3" mask="url(#path-1-inside-1_1842_2757)"/>
<path d="M12.332 13.25L12.332 22.4167" stroke="#FCFCFD" stroke-width="1.5" stroke-linecap="round"/>
<path d="M16 13.25L16 22.4167" stroke="#FCFCFD" stroke-width="1.5" stroke-linecap="round"/>
<path d="M19.6992 13.25L19.6992 22.4167" stroke="#FCFCFD" stroke-width="1.5" stroke-linecap="round"/>
<path d="M11.7227 8.66667V7C11.7227 5.89543 12.6181 5 13.7227 5H18.2782C19.3828 5 20.2782 5.89543 20.2782 7V8.66667" stroke="#FCFCFD" stroke-width="1.5"/>
<line x1="10.3594" y1="9.4165" x2="5.74826" y2="9.4165" stroke="#FCFCFD" stroke-width="1.5" stroke-linecap="round"/>
<line x1="26.25" y1="9.4165" x2="21.6389" y2="9.4165" stroke="#FCFCFD" stroke-width="1.5" stroke-linecap="round"/>
</svg>
