<svg width="32" height="32" viewBox="0 0 32 32" fill="none" xmlns="http://www.w3.org/2000/svg">
    <circle cx="16" cy="16" r="16" fill="#F2F4F7"/>
    <path d="M21.6254 7H10.3751C8.51108 7 7 8.51104 7 10.375V21.625C7 23.489 8.51108 25 10.3751 25H21.6254C23.4895 25 25.0005 23.489 25.0005 21.625V10.375C25.0005 8.51104 23.4895 7 21.6254 7Z" stroke="#475467" stroke-linecap="round" stroke-linejoin="round"/>
    <path d="M7 19.3747L11.5001 14.8747C12.0132 14.381 12.5952 14.1211 13.1877 14.1211C13.7801 14.1211 14.3622 14.381 14.8752 14.8747L20.5004 20.4997" stroke="#475467" stroke-linecap="round" stroke-linejoin="round"/>
    <path d="M18.25 18.2502L19.375 17.1252C19.8881 16.6315 20.4701 16.3716 21.0626 16.3716C21.655 16.3716 22.2371 16.6315 22.7501 17.1252L25.0002 19.3752" stroke="#475467" stroke-linecap="round" stroke-linejoin="round"/>
</svg>
