<svg width="32" height="32" viewBox="0 0 32 32" fill="none" xmlns="http://www.w3.org/2000/svg">
<path d="M28.4572 9.81106C28.1576 8.70537 27.277 7.83311 26.159 7.53817C24.1307 7 16.0007 7 16.0007 7C16.0007 7 7.86926 7 5.8424 7.53817C4.72297 7.83311 3.8424 8.70397 3.54276 9.81106C3 11.8156 3 16.0007 3 16.0007C3 16.0007 3 20.1844 3.54276 22.1903C3.8424 23.2974 4.72297 24.1683 5.8424 24.4632C7.87067 25 16.0007 25 16.0007 25C16.0007 25 24.1307 25 26.159 24.4632C27.277 24.1669 28.159 23.296 28.4572 22.1903C29 20.1844 29 16.0007 29 16.0007C29 16.0007 29.0014 11.8156 28.4572 9.81106Z" fill="#FF0000"/>
<path d="M13.1094 20.1539L20.3316 16.0008L13.1094 11.8462V20.1539Z" fill="white"/>
</svg>
