<svg width="32" height="32" viewBox="0 0 32 32" fill="none" xmlns="http://www.w3.org/2000/svg">
<rect x="5" y="6" width="22" height="22" rx="4" fill="#E4E7EC"/>
<rect x="5.25" y="6.25" width="21.5" height="21.5" rx="3.75" stroke="url(#paint0_linear_1627_2028)" stroke-opacity="0.2" stroke-width="0.5"/>
<path fill-rule="evenodd" clip-rule="evenodd" d="M12 16.1671C12 14.4184 13.4184 13 15.1692 13C16.9199 13 18.3383 14.4184 18.3383 16.1671C18.3383 17.9157 16.9199 19.3341 15.1692 19.3341C13.4184 19.3341 12 17.9157 12 16.1671ZM15.1692 11C12.3148 11 10 13.3129 10 16.1671C10 19.0212 12.3148 21.3341 15.1692 21.3341C16.234 21.3341 17.2237 21.0123 18.0462 20.4605L20.2952 22.7083C20.6858 23.0987 21.3189 23.0986 21.7094 22.7079C22.0998 22.3173 22.0996 21.6841 21.709 21.2937L19.4614 19.0473C20.0151 18.2244 20.3383 17.2335 20.3383 16.1671C20.3383 13.3129 18.0235 11 15.1692 11Z" fill="url(#paint1_linear_1627_2028)"/>
<defs>
<linearGradient id="paint0_linear_1627_2028" x1="16" y1="6" x2="16" y2="28" gradientUnits="userSpaceOnUse">
<stop stop-color="white"/>
<stop offset="1" stop-color="white" stop-opacity="0"/>
</linearGradient>
<linearGradient id="paint1_linear_1627_2028" x1="23.5024" y1="11" x2="8.49974" y2="11" gradientUnits="userSpaceOnUse">
<stop stop-color="#98A2B3"/>
<stop offset="1" stop-color="#98A2B3" stop-opacity="0.2"/>
</linearGradient>
</defs>
</svg>
