<svg width="32" height="32" viewBox="0 0 32 32" fill="none" xmlns="http://www.w3.org/2000/svg">
<path d="M13.4105 5.30451C13.4719 4.98275 13.7532 4.75 14.0808 4.75H17.9018C18.2331 4.75 18.5165 4.9879 18.5739 5.31414L18.8184 6.70361C19.0869 8.23018 20.5987 9.20463 22.1 8.81885L24.0318 8.32242C24.3278 8.24634 24.6383 8.37641 24.7918 8.64077L26.7301 11.9802C26.9001 12.273 26.8296 12.6462 26.5645 12.8569L25.2298 13.9178C23.8901 14.9827 23.8901 17.0173 25.2298 18.0822L26.5645 19.1431C26.8296 19.3538 26.9001 19.727 26.7301 20.0198L24.776 23.3864C24.6261 23.6446 24.3258 23.7754 24.0347 23.7093L22.026 23.253C20.5492 22.9175 19.0908 23.8809 18.8199 25.3709L18.5801 26.6897C18.5211 27.0141 18.2385 27.25 17.9087 27.25H14.0734C13.7474 27.25 13.4669 27.0194 13.4039 26.6996L13.1342 25.3316C12.8437 23.8579 11.3913 22.9169 9.92758 23.254L7.96566 23.7059C7.67399 23.7731 7.37258 23.6424 7.22233 23.3835L5.25742 19.9983C5.09004 19.71 5.15556 19.3429 5.41236 19.1302L6.70323 18.0612C7.98218 17.0021 7.98871 15.043 6.71686 13.9754L5.40476 12.874C5.1507 12.6607 5.0868 12.2956 5.25332 12.0088L7.20633 8.64404C7.3602 8.37895 7.67195 8.24898 7.96856 8.32626L9.85292 8.81723C11.3416 9.20512 12.848 8.25293 13.1363 6.74177L13.4105 5.30451Z" stroke="#101828" stroke-width="1.5" stroke-linejoin="round"/>
<circle cx="15.9983" cy="16.0003" r="4.39286" stroke="#101828" stroke-width="1.5"/>
</svg>
