<svg width="32" height="32" viewBox="0 0 32 32" fill="none" xmlns="http://www.w3.org/2000/svg">
<path d="M26 22H23C20.73 22 18.72 21.0743 17.44 19.6429C16.54 18.6314 16 17.3714 16 16C16 12.6829 19.13 10 23 10H26" stroke="#08DEF7" stroke-width="1.5" stroke-miterlimit="10" stroke-linecap="round"/>
<path d="M24.1213 7.99977L26.2426 10.1211L24.1213 12.2424" stroke="#08DEF7" stroke-width="1.5" stroke-linecap="round" stroke-linejoin="round"/>
<path d="M24.1213 19.9998L26.2426 22.1211L24.1213 24.2424" stroke="#08DEF7" stroke-width="1.5" stroke-linecap="round" stroke-linejoin="round"/>
<path d="M6 10L9 10C11.27 10 13.28 10.9257 14.56 12.3571C15.46 13.3686 16 14.6286 16 16C16 19.3171 12.87 22 9 22L6 22" stroke="#08DEF7" stroke-width="1.5" stroke-miterlimit="10" stroke-linecap="round"/>
</svg>
