<svg width="48" height="48" viewBox="0 0 48 48" fill="none" xmlns="http://www.w3.org/2000/svg">
<circle cx="24" cy="24" r="24" fill="#FFF5E6"/>
<g filter="url(#filter0_d_2220_11315)">
<path fill-rule="evenodd" clip-rule="evenodd" d="M13 20C13 18.8954 13.8954 18 15 18H19V20H15V24.6871C15.3044 25.3082 15.8544 26.1652 16.5791 26.8554C17.3169 27.5582 18.1389 28 19 28H20V30H19C17.4298 30 16.1385 29.1978 15.1997 28.3036C14.2567 27.4055 13.5715 26.3253 13.1892 25.5367C13.0547 25.2594 13 24.9698 13 24.6969V20Z" fill="url(#paint0_linear_2220_11315)"/>
<path fill-rule="evenodd" clip-rule="evenodd" d="M13 20C13 18.8954 13.8954 18 15 18H19V20H15V24.6871C15.3044 25.3082 15.8544 26.1652 16.5791 26.8554C17.3169 27.5582 18.1389 28 19 28H20V30H19C17.4298 30 16.1385 29.1978 15.1997 28.3036C14.2567 27.4055 13.5715 26.3253 13.1892 25.5367C13.0547 25.2594 13 24.9698 13 24.6969V20Z" fill="url(#paint1_linear_2220_11315)" fill-opacity="0.4"/>
<path fill-rule="evenodd" clip-rule="evenodd" d="M35 20C35 18.8954 34.1046 18 33 18H29V20H33V24.6871C32.6956 25.3082 32.1456 26.1652 31.4209 26.8554C30.6831 27.5582 29.8611 28 29 28H28V30H29C30.5702 30 31.8615 29.1978 32.8003 28.3036C33.7433 27.4055 34.4285 26.3253 34.8108 25.5367C34.9453 25.2594 35 24.9698 35 24.6969V20Z" fill="url(#paint2_linear_2220_11315)"/>
<path fill-rule="evenodd" clip-rule="evenodd" d="M35 20C35 18.8954 34.1046 18 33 18H29V20H33V24.6871C32.6956 25.3082 32.1456 26.1652 31.4209 26.8554C30.6831 27.5582 29.8611 28 29 28H28V30H29C30.5702 30 31.8615 29.1978 32.8003 28.3036C33.7433 27.4055 34.4285 26.3253 34.8108 25.5367C34.9453 25.2594 35 24.9698 35 24.6969V20Z" fill="url(#paint3_linear_2220_11315)" fill-opacity="0.4"/>
<rect x="15" y="14" width="18" height="3" rx="1" fill="url(#paint4_linear_2220_11315)"/>
<rect x="17" y="34" width="14" height="3" rx="1" fill="url(#paint5_linear_2220_11315)"/>
<path d="M17 17H31V26C31 29.866 27.866 33 24 33C20.134 33 17 29.866 17 26V17Z" fill="url(#paint6_linear_2220_11315)"/>
<path d="M17 17H31V26C31 29.866 27.866 33 24 33C20.134 33 17 29.866 17 26V17Z" fill="url(#paint7_linear_2220_11315)" fill-opacity="0.6"/>
<g filter="url(#filter1_d_2220_11315)">
<path d="M23.5876 19.6018C23.7862 19.312 24.2138 19.312 24.4124 19.6018L25.6628 21.4263C25.7279 21.5212 25.8236 21.5907 25.9339 21.6232L28.0555 22.2486C28.3925 22.348 28.5246 22.7547 28.3104 23.0331L26.9616 24.7861C26.8915 24.8773 26.8549 24.9898 26.8581 25.1048L26.9189 27.3158C26.9285 27.667 26.5825 27.9184 26.2515 27.8006L24.1675 27.0596C24.0592 27.021 23.9408 27.021 23.8325 27.0596L21.7485 27.8006C21.4175 27.9184 21.0715 27.667 21.0811 27.3158L21.1419 25.1048C21.1451 24.9898 21.1085 24.8773 21.0384 24.7861L19.6896 23.0331C19.4754 22.7547 19.6075 22.348 19.9445 22.2486L22.0661 21.6232C22.1764 21.5907 22.2721 21.5212 22.3372 21.4263L23.5876 19.6018Z" fill="url(#paint8_linear_2220_11315)"/>
<path d="M23.5876 19.6018C23.7862 19.312 24.2138 19.312 24.4124 19.6018L25.6628 21.4263C25.7279 21.5212 25.8236 21.5907 25.9339 21.6232L28.0555 22.2486C28.3925 22.348 28.5246 22.7547 28.3104 23.0331L26.9616 24.7861C26.8915 24.8773 26.8549 24.9898 26.8581 25.1048L26.9189 27.3158C26.9285 27.667 26.5825 27.9184 26.2515 27.8006L24.1675 27.0596C24.0592 27.021 23.9408 27.021 23.8325 27.0596L21.7485 27.8006C21.4175 27.9184 21.0715 27.667 21.0811 27.3158L21.1419 25.1048C21.1451 24.9898 21.1085 24.8773 21.0384 24.7861L19.6896 23.0331C19.4754 22.7547 19.6075 22.348 19.9445 22.2486L22.0661 21.6232C22.1764 21.5907 22.2721 21.5212 22.3372 21.4263L23.5876 19.6018Z" fill="url(#paint9_linear_2220_11315)" fill-opacity="0.4"/>
</g>
</g>
<defs>
<filter id="filter0_d_2220_11315" x="9" y="10" width="34" height="35" filterUnits="userSpaceOnUse" color-interpolation-filters="sRGB">
<feFlood flood-opacity="0" result="BackgroundImageFix"/>
<feColorMatrix in="SourceAlpha" type="matrix" values="0 0 0 0 0 0 0 0 0 0 0 0 0 0 0 0 0 0 127 0" result="hardAlpha"/>
<feOffset dx="2" dy="2"/>
<feGaussianBlur stdDeviation="3"/>
<feComposite in2="hardAlpha" operator="out"/>
<feColorMatrix type="matrix" values="0 0 0 0 0.904167 0 0 0 0 0.651 0 0 0 0 0 0 0 0 0.34 0"/>
<feBlend mode="normal" in2="BackgroundImageFix" result="effect1_dropShadow_2220_11315"/>
<feBlend mode="normal" in="SourceGraphic" in2="effect1_dropShadow_2220_11315" result="shape"/>
</filter>
<filter id="filter1_d_2220_11315" x="17.5859" y="17.3843" width="16.8281" height="16.4458" filterUnits="userSpaceOnUse" color-interpolation-filters="sRGB">
<feFlood flood-opacity="0" result="BackgroundImageFix"/>
<feColorMatrix in="SourceAlpha" type="matrix" values="0 0 0 0 0 0 0 0 0 0 0 0 0 0 0 0 0 0 127 0" result="hardAlpha"/>
<feOffset dx="2" dy="2"/>
<feGaussianBlur stdDeviation="2"/>
<feComposite in2="hardAlpha" operator="out"/>
<feColorMatrix type="matrix" values="0 0 0 0 1 0 0 0 0 0.6 0 0 0 0 0 0 0 0 0.5 0"/>
<feBlend mode="normal" in2="BackgroundImageFix" result="effect1_dropShadow_2220_11315"/>
<feBlend mode="normal" in="SourceGraphic" in2="effect1_dropShadow_2220_11315" result="shape"/>
</filter>
<linearGradient id="paint0_linear_2220_11315" x1="14" y1="19.5" x2="16.5" y2="30" gradientUnits="userSpaceOnUse">
<stop stop-color="#FFDD7E"/>
<stop offset="0.0625" stop-color="#FFDD7E"/>
<stop offset="0.979167" stop-color="#FFA800"/>
</linearGradient>
<linearGradient id="paint1_linear_2220_11315" x1="17.5" y1="19" x2="15" y2="19" gradientUnits="userSpaceOnUse">
<stop stop-color="#FF8A00"/>
<stop offset="1" stop-color="#FF8A00" stop-opacity="0"/>
</linearGradient>
<linearGradient id="paint2_linear_2220_11315" x1="34" y1="19.5" x2="31.5" y2="30" gradientUnits="userSpaceOnUse">
<stop stop-color="#FFDD7E"/>
<stop offset="0.0625" stop-color="#FFDD7E"/>
<stop offset="0.979167" stop-color="#FFA800"/>
</linearGradient>
<linearGradient id="paint3_linear_2220_11315" x1="30.5" y1="19" x2="33" y2="19" gradientUnits="userSpaceOnUse">
<stop stop-color="#FF8A00"/>
<stop offset="1" stop-color="#FF8A00" stop-opacity="0"/>
</linearGradient>
<linearGradient id="paint4_linear_2220_11315" x1="24" y1="14" x2="24" y2="17" gradientUnits="userSpaceOnUse">
<stop stop-color="#FFDD7E"/>
<stop offset="1" stop-color="#FFC421"/>
</linearGradient>
<linearGradient id="paint5_linear_2220_11315" x1="24" y1="34" x2="24" y2="37" gradientUnits="userSpaceOnUse">
<stop stop-color="#FFDD7E"/>
<stop offset="1" stop-color="#FFBB01"/>
</linearGradient>
<linearGradient id="paint6_linear_2220_11315" x1="24" y1="17" x2="24" y2="33" gradientUnits="userSpaceOnUse">
<stop stop-color="#FFDD7E"/>
<stop offset="1" stop-color="#FFC218"/>
</linearGradient>
<linearGradient id="paint7_linear_2220_11315" x1="24" y1="17" x2="24" y2="21.5" gradientUnits="userSpaceOnUse">
<stop stop-color="#FFA800"/>
<stop offset="1" stop-color="#FF8A00" stop-opacity="0"/>
</linearGradient>
<linearGradient id="paint8_linear_2220_11315" x1="22.5" y1="19" x2="26.5" y2="28" gradientUnits="userSpaceOnUse">
<stop stop-color="#FFEEC2"/>
<stop offset="1" stop-color="#FFE8AD"/>
</linearGradient>
<linearGradient id="paint9_linear_2220_11315" x1="22.5" y1="20.5" x2="24" y2="23.5" gradientUnits="userSpaceOnUse">
<stop stop-color="white"/>
<stop offset="1" stop-color="white" stop-opacity="0"/>
</linearGradient>
</defs>
</svg>
