<svg width="48" height="48" viewBox="0 0 48 48" fill="none" xmlns="http://www.w3.org/2000/svg">
<circle cx="24" cy="24" r="24" fill="#F7F3E6"/>
<g filter="url(#filter0_d_2220_11317)">
<path d="M30 22.4415C30 21.5807 30.5509 20.8164 31.3675 20.5442L33.3675 19.8775C34.6626 19.4458 36 20.4097 36 21.7749V26.2251C36 27.5903 34.6626 28.5542 33.3675 28.1225L31.3675 27.4558C30.5509 27.1836 30 26.4193 30 25.5585V22.4415Z" fill="url(#paint0_linear_2220_11317)"/>
<path d="M30 22.4415C30 21.5807 30.5509 20.8164 31.3675 20.5442L33.3675 19.8775C34.6626 19.4458 36 20.4097 36 21.7749V26.2251C36 27.5903 34.6626 28.5542 33.3675 28.1225L31.3675 27.4558C30.5509 27.1836 30 26.4193 30 25.5585V22.4415Z" fill="url(#paint1_linear_2220_11317)"/>
<rect x="13" y="16" width="18" height="16" rx="4" fill="url(#paint2_linear_2220_11317)"/>
<rect x="13" y="16" width="18" height="16" rx="4" fill="url(#paint3_linear_2220_11317)" fill-opacity="0.2"/>
<g filter="url(#filter1_d_2220_11317)">
<circle cx="18" cy="21" r="2" fill="url(#paint4_linear_2220_11317)"/>
<circle cx="18" cy="21" r="2" fill="url(#paint5_linear_2220_11317)"/>
</g>
</g>
<defs>
<filter id="filter0_d_2220_11317" x="9" y="12" width="35" height="28" filterUnits="userSpaceOnUse" color-interpolation-filters="sRGB">
<feFlood flood-opacity="0" result="BackgroundImageFix"/>
<feColorMatrix in="SourceAlpha" type="matrix" values="0 0 0 0 0 0 0 0 0 0 0 0 0 0 0 0 0 0 127 0" result="hardAlpha"/>
<feOffset dx="2" dy="2"/>
<feGaussianBlur stdDeviation="3"/>
<feComposite in2="hardAlpha" operator="out"/>
<feColorMatrix type="matrix" values="0 0 0 0 0.573593 0 0 0 0 0.172188 0 0 0 0 0.725 0 0 0 0.25 0"/>
<feBlend mode="normal" in2="BackgroundImageFix" result="effect1_dropShadow_2220_11317"/>
<feBlend mode="normal" in="SourceGraphic" in2="effect1_dropShadow_2220_11317" result="shape"/>
</filter>
<filter id="filter1_d_2220_11317" x="14" y="19" width="8" height="8" filterUnits="userSpaceOnUse" color-interpolation-filters="sRGB">
<feFlood flood-opacity="0" result="BackgroundImageFix"/>
<feColorMatrix in="SourceAlpha" type="matrix" values="0 0 0 0 0 0 0 0 0 0 0 0 0 0 0 0 0 0 127 0" result="hardAlpha"/>
<feOffset dy="2"/>
<feGaussianBlur stdDeviation="1"/>
<feComposite in2="hardAlpha" operator="out"/>
<feColorMatrix type="matrix" values="0 0 0 0 0.625228 0 0 0 0 0.0239063 0 0 0 0 0.6375 0 0 0 0.55 0"/>
<feBlend mode="normal" in2="BackgroundImageFix" result="effect1_dropShadow_2220_11317"/>
<feBlend mode="normal" in="SourceGraphic" in2="effect1_dropShadow_2220_11317" result="shape"/>
</filter>
<linearGradient id="paint0_linear_2220_11317" x1="33" y1="19" x2="33" y2="29" gradientUnits="userSpaceOnUse">
<stop stop-color="#DBB4EF"/>
<stop offset="1" stop-color="#B325E8"/>
</linearGradient>
<linearGradient id="paint1_linear_2220_11317" x1="29.5" y1="24" x2="33.5" y2="24" gradientUnits="userSpaceOnUse">
<stop stop-color="#A119CD"/>
<stop offset="1" stop-color="#A119CD" stop-opacity="0"/>
</linearGradient>
<linearGradient id="paint2_linear_2220_11317" x1="22" y1="16" x2="22" y2="32" gradientUnits="userSpaceOnUse">
<stop stop-color="#DBB4EF"/>
<stop offset="1" stop-color="#B325E8"/>
</linearGradient>
<linearGradient id="paint3_linear_2220_11317" x1="18.5" y1="31" x2="18.5" y2="28.5" gradientUnits="userSpaceOnUse">
<stop stop-color="white"/>
<stop offset="1" stop-color="white" stop-opacity="0"/>
</linearGradient>
<linearGradient id="paint4_linear_2220_11317" x1="18" y1="19" x2="18" y2="23" gradientUnits="userSpaceOnUse">
<stop stop-color="#F4FF81"/>
<stop offset="1" stop-color="#F0B152"/>
</linearGradient>
<linearGradient id="paint5_linear_2220_11317" x1="20" y1="21.5" x2="18" y2="21.5" gradientUnits="userSpaceOnUse">
<stop stop-color="#F1C116"/>
<stop offset="1" stop-color="#F4FF81" stop-opacity="0"/>
</linearGradient>
</defs>
</svg>
