<svg width="48" height="48" viewBox="0 0 48 48" fill="none" xmlns="http://www.w3.org/2000/svg">
<circle cx="24" cy="24" r="24" fill="#F7E6F3"/>
<g filter="url(#filter0_d_2220_11318)">
<rect x="21" y="28" width="6" height="8" rx="1" fill="url(#paint0_linear_2220_11318)"/>
<path d="M22.356 20.3729C23.1514 19.2249 24.8486 19.2249 25.644 20.3729L32.2175 29.861C33.1365 31.1874 32.1872 33 30.5736 33H17.4264C15.8128 33 14.8635 31.1874 15.7825 29.861L22.356 20.3729Z" fill="url(#paint1_linear_2220_11318)"/>
<path d="M22.356 20.3729C23.1514 19.2249 24.8486 19.2249 25.644 20.3729L32.2175 29.861C33.1365 31.1874 32.1872 33 30.5736 33H17.4264C15.8128 33 14.8635 31.1874 15.7825 29.861L22.356 20.3729Z" fill="url(#paint2_linear_2220_11318)"/>
<path d="M22.356 20.3729C23.1514 19.2249 24.8486 19.2249 25.644 20.3729L32.2175 29.861C33.1365 31.1874 32.1872 33 30.5736 33H17.4264C15.8128 33 14.8635 31.1874 15.7825 29.861L22.356 20.3729Z" fill="url(#paint3_linear_2220_11318)" fill-opacity="0.4"/>
<path d="M22.356 15.3729C23.1514 14.2249 24.8486 14.2249 25.644 15.3729L32.2175 24.861C33.1365 26.1874 32.1872 28 30.5736 28H17.4264C15.8128 28 14.8635 26.1874 15.7825 24.861L22.356 15.3729Z" fill="url(#paint4_linear_2220_11318)"/>
<path d="M22.356 15.3729C23.1514 14.2249 24.8486 14.2249 25.644 15.3729L32.2175 24.861C33.1365 26.1874 32.1872 28 30.5736 28H17.4264C15.8128 28 14.8635 26.1874 15.7825 24.861L22.356 15.3729Z" fill="url(#paint5_linear_2220_11318)" fill-opacity="0.4"/>
<g filter="url(#filter1_d_2220_11318)">
<circle cx="24" cy="14" r="2" fill="url(#paint6_linear_2220_11318)"/>
<circle cx="24" cy="14" r="2" fill="url(#paint7_linear_2220_11318)"/>
</g>
<g filter="url(#filter2_d_2220_11318)">
<circle cx="18.5" cy="21.5" r="1.5" fill="url(#paint8_linear_2220_11318)"/>
<circle cx="18.5" cy="21.5" r="1.5" fill="url(#paint9_linear_2220_11318)"/>
</g>
<g filter="url(#filter3_d_2220_11318)">
<circle cx="28.5" cy="20.5" r="1.5" fill="url(#paint10_linear_2220_11318)"/>
<circle cx="28.5" cy="20.5" r="1.5" fill="url(#paint11_linear_2220_11318)"/>
</g>
<g filter="url(#filter4_d_2220_11318)">
<circle cx="22.5" cy="27.5" r="1.5" fill="url(#paint12_linear_2220_11318)"/>
<circle cx="22.5" cy="27.5" r="1.5" fill="url(#paint13_linear_2220_11318)"/>
</g>
<g filter="url(#filter5_d_2220_11318)">
<circle cx="29.5" cy="30.5" r="1.5" fill="url(#paint14_linear_2220_11318)"/>
<circle cx="29.5" cy="30.5" r="1.5" fill="url(#paint15_linear_2220_11318)"/>
</g>
</g>
<defs>
<filter id="filter0_d_2220_11318" x="11.4219" y="8" width="29.1562" height="36" filterUnits="userSpaceOnUse" color-interpolation-filters="sRGB">
<feFlood flood-opacity="0" result="BackgroundImageFix"/>
<feColorMatrix in="SourceAlpha" type="matrix" values="0 0 0 0 0 0 0 0 0 0 0 0 0 0 0 0 0 0 127 0" result="hardAlpha"/>
<feOffset dx="2" dy="2"/>
<feGaussianBlur stdDeviation="3"/>
<feComposite in2="hardAlpha" operator="out"/>
<feColorMatrix type="matrix" values="0 0 0 0 0 0 0 0 0 0 0 0 0 0 0 0 0 0 0.25 0"/>
<feBlend mode="normal" in2="BackgroundImageFix" result="effect1_dropShadow_2220_11318"/>
<feBlend mode="normal" in="SourceGraphic" in2="effect1_dropShadow_2220_11318" result="shape"/>
</filter>
<filter id="filter1_d_2220_11318" x="20" y="12" width="8" height="8" filterUnits="userSpaceOnUse" color-interpolation-filters="sRGB">
<feFlood flood-opacity="0" result="BackgroundImageFix"/>
<feColorMatrix in="SourceAlpha" type="matrix" values="0 0 0 0 0 0 0 0 0 0 0 0 0 0 0 0 0 0 127 0" result="hardAlpha"/>
<feOffset dy="2"/>
<feGaussianBlur stdDeviation="1"/>
<feComposite in2="hardAlpha" operator="out"/>
<feColorMatrix type="matrix" values="0 0 0 0 0.0309375 0 0 0 0 0.275 0 0 0 0 0.128563 0 0 0 0.55 0"/>
<feBlend mode="normal" in2="BackgroundImageFix" result="effect1_dropShadow_2220_11318"/>
<feBlend mode="normal" in="SourceGraphic" in2="effect1_dropShadow_2220_11318" result="shape"/>
</filter>
<filter id="filter2_d_2220_11318" x="15" y="20" width="7" height="7" filterUnits="userSpaceOnUse" color-interpolation-filters="sRGB">
<feFlood flood-opacity="0" result="BackgroundImageFix"/>
<feColorMatrix in="SourceAlpha" type="matrix" values="0 0 0 0 0 0 0 0 0 0 0 0 0 0 0 0 0 0 127 0" result="hardAlpha"/>
<feOffset dy="2"/>
<feGaussianBlur stdDeviation="1"/>
<feComposite in2="hardAlpha" operator="out"/>
<feColorMatrix type="matrix" values="0 0 0 0 0.0309375 0 0 0 0 0.275 0 0 0 0 0.128563 0 0 0 0.55 0"/>
<feBlend mode="normal" in2="BackgroundImageFix" result="effect1_dropShadow_2220_11318"/>
<feBlend mode="normal" in="SourceGraphic" in2="effect1_dropShadow_2220_11318" result="shape"/>
</filter>
<filter id="filter3_d_2220_11318" x="25" y="19" width="7" height="7" filterUnits="userSpaceOnUse" color-interpolation-filters="sRGB">
<feFlood flood-opacity="0" result="BackgroundImageFix"/>
<feColorMatrix in="SourceAlpha" type="matrix" values="0 0 0 0 0 0 0 0 0 0 0 0 0 0 0 0 0 0 127 0" result="hardAlpha"/>
<feOffset dy="2"/>
<feGaussianBlur stdDeviation="1"/>
<feComposite in2="hardAlpha" operator="out"/>
<feColorMatrix type="matrix" values="0 0 0 0 0.0309375 0 0 0 0 0.275 0 0 0 0 0.128563 0 0 0 0.55 0"/>
<feBlend mode="normal" in2="BackgroundImageFix" result="effect1_dropShadow_2220_11318"/>
<feBlend mode="normal" in="SourceGraphic" in2="effect1_dropShadow_2220_11318" result="shape"/>
</filter>
<filter id="filter4_d_2220_11318" x="19" y="26" width="7" height="7" filterUnits="userSpaceOnUse" color-interpolation-filters="sRGB">
<feFlood flood-opacity="0" result="BackgroundImageFix"/>
<feColorMatrix in="SourceAlpha" type="matrix" values="0 0 0 0 0 0 0 0 0 0 0 0 0 0 0 0 0 0 127 0" result="hardAlpha"/>
<feOffset dy="2"/>
<feGaussianBlur stdDeviation="1"/>
<feComposite in2="hardAlpha" operator="out"/>
<feColorMatrix type="matrix" values="0 0 0 0 0.0309375 0 0 0 0 0.275 0 0 0 0 0.128563 0 0 0 0.55 0"/>
<feBlend mode="normal" in2="BackgroundImageFix" result="effect1_dropShadow_2220_11318"/>
<feBlend mode="normal" in="SourceGraphic" in2="effect1_dropShadow_2220_11318" result="shape"/>
</filter>
<filter id="filter5_d_2220_11318" x="26" y="27" width="7" height="7" filterUnits="userSpaceOnUse" color-interpolation-filters="sRGB">
<feFlood flood-opacity="0" result="BackgroundImageFix"/>
<feColorMatrix in="SourceAlpha" type="matrix" values="0 0 0 0 0 0 0 0 0 0 0 0 0 0 0 0 0 0 127 0" result="hardAlpha"/>
<feOffset/>
<feGaussianBlur stdDeviation="1"/>
<feComposite in2="hardAlpha" operator="out"/>
<feColorMatrix type="matrix" values="0 0 0 0 0.0309375 0 0 0 0 0.275 0 0 0 0 0.128563 0 0 0 0.55 0"/>
<feBlend mode="normal" in2="BackgroundImageFix" result="effect1_dropShadow_2220_11318"/>
<feBlend mode="normal" in="SourceGraphic" in2="effect1_dropShadow_2220_11318" result="shape"/>
</filter>
<linearGradient id="paint0_linear_2220_11318" x1="21" y1="32.5" x2="24" y2="36" gradientUnits="userSpaceOnUse">
<stop stop-color="#A58C67"/>
<stop offset="1" stop-color="#644415"/>
</linearGradient>
<linearGradient id="paint1_linear_2220_11318" x1="24" y1="18" x2="24" y2="38" gradientUnits="userSpaceOnUse">
<stop stop-color="#0D932A"/>
<stop offset="1" stop-color="#046B1B"/>
</linearGradient>
<linearGradient id="paint2_linear_2220_11318" x1="23.5" y1="26.5" x2="23.5" y2="30.5" gradientUnits="userSpaceOnUse">
<stop stop-color="#002909"/>
<stop offset="1" stop-color="#002909" stop-opacity="0"/>
</linearGradient>
<linearGradient id="paint3_linear_2220_11318" x1="16.5" y1="28.5" x2="19.5" y2="30.5" gradientUnits="userSpaceOnUse">
<stop stop-color="white"/>
<stop offset="1" stop-color="white" stop-opacity="0"/>
</linearGradient>
<linearGradient id="paint4_linear_2220_11318" x1="24" y1="13" x2="29" y2="29.5" gradientUnits="userSpaceOnUse">
<stop stop-color="#34BA51"/>
<stop offset="1" stop-color="#046B1B"/>
</linearGradient>
<linearGradient id="paint5_linear_2220_11318" x1="16.5" y1="23.5" x2="23.5" y2="28.5" gradientUnits="userSpaceOnUse">
<stop stop-color="white"/>
<stop offset="1" stop-opacity="0"/>
</linearGradient>
<linearGradient id="paint6_linear_2220_11318" x1="24" y1="12" x2="24" y2="16" gradientUnits="userSpaceOnUse">
<stop stop-color="#F4FF81"/>
<stop offset="1" stop-color="#F0B152"/>
</linearGradient>
<linearGradient id="paint7_linear_2220_11318" x1="26" y1="14.5" x2="24" y2="14.5" gradientUnits="userSpaceOnUse">
<stop stop-color="#F1C116"/>
<stop offset="1" stop-color="#F4FF81" stop-opacity="0"/>
</linearGradient>
<linearGradient id="paint8_linear_2220_11318" x1="18.5" y1="20" x2="18.5" y2="23" gradientUnits="userSpaceOnUse">
<stop stop-color="#F4FF81"/>
<stop offset="1" stop-color="#F0B152"/>
</linearGradient>
<linearGradient id="paint9_linear_2220_11318" x1="20" y1="21.875" x2="18.5" y2="21.875" gradientUnits="userSpaceOnUse">
<stop stop-color="#F1C116"/>
<stop offset="1" stop-color="#F4FF81" stop-opacity="0"/>
</linearGradient>
<linearGradient id="paint10_linear_2220_11318" x1="28.5" y1="19" x2="28.5" y2="22" gradientUnits="userSpaceOnUse">
<stop stop-color="#FF8181"/>
<stop offset="1" stop-color="#F05252"/>
</linearGradient>
<linearGradient id="paint11_linear_2220_11318" x1="30" y1="20.875" x2="28.5" y2="20.875" gradientUnits="userSpaceOnUse">
<stop stop-color="#F11616"/>
<stop offset="1" stop-color="#FF8181" stop-opacity="0"/>
</linearGradient>
<linearGradient id="paint12_linear_2220_11318" x1="22.5" y1="26" x2="22.5" y2="29" gradientUnits="userSpaceOnUse">
<stop stop-color="#FF8181"/>
<stop offset="1" stop-color="#F05252"/>
</linearGradient>
<linearGradient id="paint13_linear_2220_11318" x1="24" y1="27.875" x2="22.5" y2="27.875" gradientUnits="userSpaceOnUse">
<stop stop-color="#F11616"/>
<stop offset="1" stop-color="#FF8181" stop-opacity="0"/>
</linearGradient>
<linearGradient id="paint14_linear_2220_11318" x1="29.5" y1="29" x2="29.5" y2="32" gradientUnits="userSpaceOnUse">
<stop stop-color="#F4FF81"/>
<stop offset="1" stop-color="#F0B152"/>
</linearGradient>
<linearGradient id="paint15_linear_2220_11318" x1="31" y1="30.875" x2="29.5" y2="30.875" gradientUnits="userSpaceOnUse">
<stop stop-color="#F1C116"/>
<stop offset="1" stop-color="#F4FF81" stop-opacity="0"/>
</linearGradient>
</defs>
</svg>
