<svg width="48" height="48" viewBox="0 0 48 48" fill="none" xmlns="http://www.w3.org/2000/svg">
<circle cx="24" cy="24" r="24" fill="#ECEFFF"/>
<g filter="url(#filter0_d_2220_11316)">
<path d="M23.5309 33.3084C29.1389 33.3084 33.6851 28.7622 33.6851 23.1542C33.6851 21.6443 33.3555 20.2113 32.7644 18.9233L26.9156 26.1159L16.3633 30.3468C18.1998 32.177 20.7332 33.3084 23.5309 33.3084Z" fill="url(#paint0_linear_2220_11316)"/>
<path d="M23.5309 33.3084C29.1389 33.3084 33.6851 28.7622 33.6851 23.1542C33.6851 21.6443 33.3555 20.2113 32.7644 18.9233L26.9156 26.1159L16.3633 30.3468C18.1998 32.177 20.7332 33.3084 23.5309 33.3084Z" fill="url(#paint1_linear_2220_11316)" fill-opacity="0.4"/>
<path d="M26.9714 26.2551L27.0075 26.2407L27.032 26.2105L32.7265 19.2076C33.2468 20.4183 33.5351 21.7524 33.5351 23.1542C33.5351 28.6794 29.0561 33.1584 23.5309 33.1584C20.8568 33.1584 18.428 32.1095 16.6331 30.4002L26.9714 26.2551Z" stroke="url(#paint2_linear_2220_11316)" stroke-opacity="0.6" stroke-width="0.3"/>
</g>
<path fill-rule="evenodd" clip-rule="evenodd" d="M33.411 18.4402C33.4122 18.4396 33.4097 18.4409 33.411 18.4402V18.4402ZM33.3288 18.7893C33.3443 18.7456 33.3181 18.6987 33.2728 18.6889C32.7913 18.5848 31.9977 18.5596 30.8802 18.7315C28.6653 19.0722 25.7231 20.102 22.6526 21.8161C19.5822 23.5303 17.1617 25.4945 15.7093 27.201C14.9765 28.0621 14.5816 28.7509 14.4174 29.2153C14.402 29.259 14.4282 29.306 14.4735 29.3158C14.955 29.4198 15.7486 29.4451 16.8661 29.2731C19.081 28.9324 22.0232 27.9027 25.0937 26.1885C28.1641 24.4744 30.5846 22.5101 32.037 20.8036C32.7698 19.9425 33.1647 19.2537 33.3288 18.7893ZM14.1333 29.2025C14.1345 29.2018 14.132 29.2032 14.1333 29.2025V29.2025ZM14.3353 29.5644C14.334 29.5651 14.3366 29.5637 14.3353 29.5644V29.5644ZM33.613 18.8021C33.6118 18.8028 33.6142 18.8014 33.613 18.8021V18.8021ZM26.3311 28.405C32.8599 24.7602 37.0521 19.8342 35.6946 17.4027C34.3371 14.9711 27.944 15.9547 21.4152 19.5996C14.8864 23.2445 10.6942 28.1704 12.0517 30.6019C13.4092 33.0335 19.8023 32.0499 26.3311 28.405Z" fill="url(#paint3_linear_2220_11316)"/>
<path fill-rule="evenodd" clip-rule="evenodd" d="M33.411 18.4402C33.4122 18.4396 33.4097 18.4409 33.411 18.4402V18.4402ZM33.3288 18.7893C33.3443 18.7456 33.3181 18.6987 33.2728 18.6889C32.7913 18.5848 31.9977 18.5596 30.8802 18.7315C28.6653 19.0722 25.7231 20.102 22.6526 21.8161C19.5822 23.5303 17.1617 25.4945 15.7093 27.201C14.9765 28.0621 14.5816 28.7509 14.4174 29.2153C14.402 29.259 14.4282 29.306 14.4735 29.3158C14.955 29.4198 15.7486 29.4451 16.8661 29.2731C19.081 28.9324 22.0232 27.9027 25.0937 26.1885C28.1641 24.4744 30.5846 22.5101 32.037 20.8036C32.7698 19.9425 33.1647 19.2537 33.3288 18.7893ZM14.1333 29.2025C14.1345 29.2018 14.132 29.2032 14.1333 29.2025V29.2025ZM14.3353 29.5644C14.334 29.5651 14.3366 29.5637 14.3353 29.5644V29.5644ZM33.613 18.8021C33.6118 18.8028 33.6142 18.8014 33.613 18.8021V18.8021ZM26.3311 28.405C32.8599 24.7602 37.0521 19.8342 35.6946 17.4027C34.3371 14.9711 27.944 15.9547 21.4152 19.5996C14.8864 23.2445 10.6942 28.1704 12.0517 30.6019C13.4092 33.0335 19.8023 32.0499 26.3311 28.405Z" fill="url(#paint4_linear_2220_11316)"/>
<g filter="url(#filter1_d_2220_11316)">
<path d="M23.9823 13.8462C18.3743 13.8462 13.8281 18.3924 13.8281 24.0004C13.8281 26.8107 14.2512 27.3851 15.9436 29.5006C23.7285 28.8236 30.7021 22.7311 33.2158 19.7695C31.6114 16.2738 28.0804 13.8462 23.9823 13.8462Z" fill="url(#paint5_linear_2220_11316)"/>
<path d="M23.9823 13.8462C18.3743 13.8462 13.8281 18.3924 13.8281 24.0004C13.8281 26.8107 14.2512 27.3851 15.9436 29.5006C23.7285 28.8236 30.7021 22.7311 33.2158 19.7695C31.6114 16.2738 28.0804 13.8462 23.9823 13.8462Z" fill="url(#paint6_linear_2220_11316)" fill-opacity="0.4"/>
<path d="M13.9781 24.0004C13.9781 18.4752 18.4571 13.9962 23.9823 13.9962C27.9856 13.9962 31.44 16.3476 33.0391 19.7453C31.7761 21.2162 29.4433 23.4286 26.4744 25.3662C23.4763 27.3228 19.8402 28.9924 16.0104 29.344C15.1905 28.3185 14.6911 27.6746 14.3896 26.9532C14.0841 26.222 13.9781 25.4002 13.9781 24.0004Z" stroke="url(#paint7_linear_2220_11316)" stroke-opacity="0.6" stroke-width="0.3"/>
</g>
<defs>
<filter id="filter0_d_2220_11316" x="14.3633" y="17.9233" width="21.3203" height="18.3853" filterUnits="userSpaceOnUse" color-interpolation-filters="sRGB">
<feFlood flood-opacity="0" result="BackgroundImageFix"/>
<feColorMatrix in="SourceAlpha" type="matrix" values="0 0 0 0 0 0 0 0 0 0 0 0 0 0 0 0 0 0 127 0" result="hardAlpha"/>
<feOffset dy="1"/>
<feGaussianBlur stdDeviation="1"/>
<feComposite in2="hardAlpha" operator="out"/>
<feColorMatrix type="matrix" values="0 0 0 0 0 0 0 0 0 0 0 0 0 0 0 0 0 0 0.1 0"/>
<feBlend mode="normal" in2="BackgroundImageFix" result="effect1_dropShadow_2220_11316"/>
<feBlend mode="normal" in="SourceGraphic" in2="effect1_dropShadow_2220_11316" result="shape"/>
</filter>
<filter id="filter1_d_2220_11316" x="11.8281" y="12.8462" width="23.3867" height="19.6543" filterUnits="userSpaceOnUse" color-interpolation-filters="sRGB">
<feFlood flood-opacity="0" result="BackgroundImageFix"/>
<feColorMatrix in="SourceAlpha" type="matrix" values="0 0 0 0 0 0 0 0 0 0 0 0 0 0 0 0 0 0 127 0" result="hardAlpha"/>
<feOffset dy="1"/>
<feGaussianBlur stdDeviation="1"/>
<feComposite in2="hardAlpha" operator="out"/>
<feColorMatrix type="matrix" values="0 0 0 0 0 0 0 0 0 0 0 0 0 0 0 0 0 0 0.1 0"/>
<feBlend mode="normal" in2="BackgroundImageFix" result="effect1_dropShadow_2220_11316"/>
<feBlend mode="normal" in="SourceGraphic" in2="effect1_dropShadow_2220_11316" result="shape"/>
</filter>
<linearGradient id="paint0_linear_2220_11316" x1="31.1715" y1="27.8082" x2="25.0242" y2="33.3084" gradientUnits="userSpaceOnUse">
<stop stop-color="#3550F5"/>
<stop offset="1" stop-color="#011696"/>
</linearGradient>
<linearGradient id="paint1_linear_2220_11316" x1="18.2533" y1="23.9776" x2="22.4916" y2="26.9745" gradientUnits="userSpaceOnUse">
<stop stop-color="white"/>
<stop offset="1" stop-color="white" stop-opacity="0"/>
</linearGradient>
<linearGradient id="paint2_linear_2220_11316" x1="16.3633" y1="21.8392" x2="22.1928" y2="27.5071" gradientUnits="userSpaceOnUse">
<stop stop-color="white"/>
<stop offset="1" stop-color="white" stop-opacity="0"/>
</linearGradient>
<linearGradient id="paint3_linear_2220_11316" x1="21.4152" y1="19.5996" x2="26.3311" y2="28.405" gradientUnits="userSpaceOnUse">
<stop stop-color="#F4FF81"/>
<stop offset="1" stop-color="#F0B152"/>
</linearGradient>
<linearGradient id="paint4_linear_2220_11316" x1="36.3091" y1="18.5034" x2="24.4876" y2="25.103" gradientUnits="userSpaceOnUse">
<stop stop-color="#F1C116"/>
<stop offset="1" stop-color="#F4FF81" stop-opacity="0"/>
</linearGradient>
<linearGradient id="paint5_linear_2220_11316" x1="23.5219" y1="13.8462" x2="23.5219" y2="29.5006" gradientUnits="userSpaceOnUse">
<stop stop-color="#3550F5"/>
<stop offset="1" stop-color="#011696"/>
</linearGradient>
<linearGradient id="paint6_linear_2220_11316" x1="15.9436" y1="19.3464" x2="20.5976" y2="22.7311" gradientUnits="userSpaceOnUse">
<stop stop-color="white"/>
<stop offset="1" stop-color="white" stop-opacity="0"/>
</linearGradient>
<linearGradient id="paint7_linear_2220_11316" x1="13.8281" y1="17.0194" x2="20.1745" y2="23.3657" gradientUnits="userSpaceOnUse">
<stop stop-color="white"/>
<stop offset="1" stop-color="white" stop-opacity="0"/>
</linearGradient>
</defs>
</svg>
