<svg width="40" height="26" viewBox="0 0 40 26" fill="none" xmlns="http://www.w3.org/2000/svg">
<path d="M19.9794 17.4281C19.1959 17.4281 18.5604 18.0444 18.5604 18.8043C18.5604 19.3788 18.0782 19.8465 17.4859 19.8465C16.8937 19.8465 16.4114 19.3788 16.4114 18.8043V6.35091C16.4114 5.59096 15.776 4.97462 14.9925 4.97462C14.209 4.97462 13.5735 5.59096 13.5735 6.35091L13.5334 16.4447C13.5334 17.0192 13.0512 17.4869 12.4589 17.4869C11.8667 17.4869 11.3844 17.0192 11.3844 16.4447V8.71055C11.3844 7.9506 10.749 7.33426 9.96549 7.33426C9.18198 7.33426 8.54654 7.9506 8.54654 8.71055V16.4447C8.54654 18.5371 10.3017 20.2395 12.4589 20.2395C12.9227 20.2395 13.3669 20.1607 13.7802 20.0161C14.3026 21.515 15.7668 22.5981 17.4859 22.5981C19.4231 22.5981 21.0354 21.2258 21.3449 19.4307C21.3798 19.311 21.3984 19.1853 21.3984 19.0557V18.8043C21.3984 18.0444 20.7629 17.4281 19.9794 17.4281ZM35.081 11.4841C34.2975 11.4841 33.662 12.1004 33.662 12.8604V15.0265C33.662 15.7865 34.2975 16.4028 35.081 16.4028C35.8645 16.4028 36.4999 15.7865 36.4999 15.0265V12.8604C36.4999 12.1004 35.8645 11.4841 35.081 11.4841ZM4.91895 11.4841C4.13544 11.4841 3.5 12.1004 3.5 12.8604V15.0265C3.5 15.7865 4.13544 16.4028 4.91895 16.4028C5.70246 16.4028 6.33791 15.7865 6.33791 15.0265V12.8604C6.33791 12.1004 5.70246 11.4841 4.91895 11.4841ZM20 13.0568C19.2165 13.0568 18.581 13.6732 18.581 14.4331V15.0265C18.581 15.7865 19.2165 16.4028 20 16.4028C20.7835 16.4028 21.4189 15.7865 21.4189 15.0265V14.4331C21.4189 13.6732 20.7835 13.0568 20 13.0568ZM27.54 5.7615C27.0762 5.7615 26.632 5.84028 26.2187 5.98489C25.6963 4.48494 24.2332 3.40186 22.5129 3.40186C20.3557 3.40186 18.6005 5.10427 18.6005 7.19663V10.405C18.6005 11.1649 19.236 11.7813 20.0195 11.7813C20.803 11.7813 21.4385 11.1649 21.4385 10.405V7.19663C21.4385 6.62218 21.9207 6.15444 22.5129 6.15444C23.1052 6.15444 23.5874 6.62218 23.5874 7.19663V19.6501C23.5874 20.41 24.2229 21.0264 25.0064 21.0264C25.7899 21.0264 26.4254 20.41 26.4254 19.6501L26.4655 9.55627C26.4655 8.98182 26.9477 8.51408 27.54 8.51408C28.1322 8.51408 28.6145 8.98182 28.6145 9.55627V17.2904C28.6145 18.0504 29.2499 18.6667 30.0334 18.6667C30.8169 18.6667 31.4524 18.0504 31.4524 17.2904V9.55527C31.4524 7.46291 29.6972 5.7615 27.54 5.7615Z" fill="white"/>
<path d="M19.9794 17.4281C19.1959 17.4281 18.5604 18.0444 18.5604 18.8043C18.5604 19.3788 18.0782 19.8465 17.4859 19.8465C16.8937 19.8465 16.4114 19.3788 16.4114 18.8043V6.35091C16.4114 5.59096 15.776 4.97462 14.9925 4.97462C14.209 4.97462 13.5735 5.59096 13.5735 6.35091L13.5334 16.4447C13.5334 17.0192 13.0512 17.4869 12.4589 17.4869C11.8667 17.4869 11.3844 17.0192 11.3844 16.4447V8.71055C11.3844 7.9506 10.749 7.33426 9.96549 7.33426C9.18198 7.33426 8.54654 7.9506 8.54654 8.71055V16.4447C8.54654 18.5371 10.3017 20.2395 12.4589 20.2395C12.9227 20.2395 13.3669 20.1607 13.7802 20.0161C14.3026 21.515 15.7668 22.5981 17.4859 22.5981C19.4231 22.5981 21.0354 21.2258 21.3449 19.4307C21.3798 19.311 21.3984 19.1853 21.3984 19.0557V18.8043C21.3984 18.0444 20.7629 17.4281 19.9794 17.4281ZM35.081 11.4841C34.2975 11.4841 33.662 12.1004 33.662 12.8604V15.0265C33.662 15.7865 34.2975 16.4028 35.081 16.4028C35.8645 16.4028 36.4999 15.7865 36.4999 15.0265V12.8604C36.4999 12.1004 35.8645 11.4841 35.081 11.4841ZM4.91895 11.4841C4.13544 11.4841 3.5 12.1004 3.5 12.8604V15.0265C3.5 15.7865 4.13544 16.4028 4.91895 16.4028C5.70246 16.4028 6.33791 15.7865 6.33791 15.0265V12.8604C6.33791 12.1004 5.70246 11.4841 4.91895 11.4841ZM20 13.0568C19.2165 13.0568 18.581 13.6732 18.581 14.4331V15.0265C18.581 15.7865 19.2165 16.4028 20 16.4028C20.7835 16.4028 21.4189 15.7865 21.4189 15.0265V14.4331C21.4189 13.6732 20.7835 13.0568 20 13.0568ZM27.54 5.7615C27.0762 5.7615 26.632 5.84028 26.2187 5.98489C25.6963 4.48494 24.2332 3.40186 22.5129 3.40186C20.3557 3.40186 18.6005 5.10427 18.6005 7.19663V10.405C18.6005 11.1649 19.236 11.7813 20.0195 11.7813C20.803 11.7813 21.4385 11.1649 21.4385 10.405V7.19663C21.4385 6.62218 21.9207 6.15444 22.5129 6.15444C23.1052 6.15444 23.5874 6.62218 23.5874 7.19663V19.6501C23.5874 20.41 24.2229 21.0264 25.0064 21.0264C25.7899 21.0264 26.4254 20.41 26.4254 19.6501L26.4655 9.55627C26.4655 8.98182 26.9477 8.51408 27.54 8.51408C28.1322 8.51408 28.6145 8.98182 28.6145 9.55627V17.2904C28.6145 18.0504 29.2499 18.6667 30.0334 18.6667C30.8169 18.6667 31.4524 18.0504 31.4524 17.2904V9.55527C31.4524 7.46291 29.6972 5.7615 27.54 5.7615Z" fill="url(#paint0_linear_1842_2780)"/>
<defs>
<linearGradient id="paint0_linear_1842_2780" x1="6.87499" y1="6.86447" x2="20.4353" y2="14.0747" gradientUnits="userSpaceOnUse">
<stop stop-color="#F4FF81"/>
<stop offset="1" stop-color="#00F3F3"/>
</linearGradient>
</defs>
</svg>
